# xmcd
# 
# Track frame offsets:
#     150
#     21032
#     61133
#     76076
#     130122
#     142905
#     157250
#     174986
#     181620
# 
# Disc length: 2792
# 
# Revision: 3
# Processed by: cddbd v1.5.2PL0 Copyright (c) Steve Scherf et al.
# Submitted via: fre:ac v1.0.31
# 
DISCID=630ae609
DTITLE=Brian Blade - Season of changes
DYEAR=2008
DGENRE=Jazz
TTITLE0=Rubylou's lullaby
TTITLE1=Return of the prodigal son
TTITLE2=Stoner hill
TTITLE3=Season of changes
TTITLE4=Most precious one
TTITLE5=Most precious one (Prodigy)
TTITLE6=Improvisation
TTITLE7=Alpha and omega
TTITLE8=Omni
EXTD=YEAR: 2007
EXTT0=
EXTT1=
EXTT2=
EXTT3=
EXTT4=
EXTT5=
EXTT6=
EXTT7=
EXTT8=
PLAYORDER=
